<svg width="323.663" height="120.81" xmlns="http://www.w3.org/2000/svg" viewBox="88.169 14.595 323.663 120.81" style="background:0 0" preserveAspectRatio="xMidYMid"><defs><filter id="editing-extrude-glow"><feFlood flood-color="#333" result="flood-1"/><feMorphology radius="1" in="SourceAlpha" result="erode"/><feComposite operator="in" in="flood-1" in2="erode" result="comp1"/><feConvolveMatrix order="3,3" divisor="1" in="comp1" result="convolve" kernelMatrix="0 0 0 1 1 1 0 0 0"/><feOffset dx="-3" in="convolve" result="extrude"/><feComposite operator="in" in="flood-1" in2="extrude" result="comp-extrude"/><feFlood flood-color="#000" result="flood-2"/><feComposite operator="in" in="flood-2" in2="SourceAlpha" result="comp2"/><feMorphology operator="dilate" radius="1" in="comp2" result="dilate"/><feOffset dx="-4.5" in="dilate" result="offset"/><feGaussianBlur in="offset" stdDeviation="5.8" result="blur"/><feComponentTransfer in="blur" result="shadow"><feFuncA type="linear" slope=".8" intercept="-.2"/></feComponentTransfer><feMerge><feMergeNode in="shadow"/><feMergeNode in="comp-extrude"/><feMergeNode in="SourceGraphic"/></feMerge></filter></defs><g filter="url(#editing-extrude-glow)"><path d="M140.59 92.6q0-1.73.9-6.08l3.39-17.28h-3.78l.26-1.92q7.68-2.3 15.1-7.94h3.08L158 66.36h4.99l-.57 2.88h-4.93l-3.27 17.28q-.83 3.97-.83 5.31 0 3.07 2.69 3.71-.64 2.18-2.94 3.46-2.31 1.28-5.57 1.28-3.27 0-5.12-2.05-1.86-2.05-1.86-5.63zm37.44 2.88q-1.98 4.8-8.32 4.8-3.26 0-5.31-2.24-1.73-1.98-1.73-3.97 0-5.18 2.37-15.29l2.37-12.42 12.99-1.28-3.9 20.22q-1.09 4.74-1.09 6.4 0 3.65 2.62 3.78zm-9.47-38.02q0-2.49 2.08-3.84 2.08-1.34 5.09-1.34t4.83 1.34q1.82 1.35 1.82 3.84 0 2.5-2.01 3.78-2.02 1.28-5.03 1.28-3 0-4.89-1.28-1.89-1.28-1.89-3.78zm46.34 14.92q0 2.68-2.24 4.35-2.24 1.66-5.89 1.66-1.54 0-2.43-.45.7-1.66.92-3.74.23-2.08.23-2.66 0-2.68-1.86-2.68-1.28 0-2.72 1.6-1.44 1.6-2.65 4.09-2.69 5.76-2.69 11.59 0 3.2 1.21 4.64 1.22 1.44 3.91 1.44 3.71 0 6.65-3.08.84-.96 1.28-2.04 2.44 1.28 2.44 4.8 0 3.58-3.97 5.95-4.1 2.43-10.63 2.43-12.99 0-12.99-13.76 0-10.05 5.7-15.81 5.5-5.63 15.61-5.63 10.12 0 10.12 7.3zm18.24-3.72q3.45-3.58 10.75-3.58 4.03 0 6.24 2.14 2.21 2.15 2.21 6.08 0 3.94-2.21 6.72-2.21 2.79-6.31 3.94.32 1.28.77 2.62l.9 2.56q1.21 3.27 2.17 4.42t2.24 1.54q-.7 2.62-3.26 4.03-2.05 1.15-4.86 1.15-8.26 0-9.35-12.74-.19-1.79-.19-3.58 3.2-.9 5.44-3.9 2.24-3.01 2.24-6.53 0-3.52-2.5-3.52-1.79 0-3.2 1.98-1.4 1.99-2.04 5.38L227.95 99l-12.93 1.28 8.96-46.08 12.87-1.28-1.47 7.62q-.96 5.37-2.24 8.12zm48.06 19.52q1.6 1.09 1.6 3.49 0 2.4-1.22 3.94-1.21 1.53-3.2 2.56-4.09 2.11-8.51 2.11-4.41 0-7.01-.96-2.59-.96-4.32-2.75-3.39-3.39-3.39-9.6 0-9.67 5.25-15.55 5.63-6.34 15.42-6.34 6.08 0 9.09 2.56 2.24 1.92 2.24 5.06 0 11.26-19.45 11.26-.26 1.66-.26 3.07 0 2.95 1.31 4.07t3.75 1.12q2.43 0 5.02-1.12 2.59-1.12 3.68-2.92zm-13.06-6.97q4.55 0 7.17-2.82 2.63-2.69 2.63-6.97 0-1.48-.55-2.28-.54-.8-1.63-.8-1.09 0-2.02.42-.92.42-1.88 1.82-2.37 3.2-3.72 10.63zm41.22-.19q2.3-4.1 2.3-8.26 0-2.75-1.98-2.75-1.54 0-3.14 2.62-1.66 2.63-2.17 6.02L301.04 99l-13.25 1.28 6.53-33.92 10.56-1.28-1.15 6.46q3.13-6.46 10.17-6.46 3.72 0 5.73 1.92 2.02 1.92 2.02 5.86 0 3.93-2.59 6.43-2.6 2.49-7.01 2.49-1.92 0-2.69-.76zm16.1 16.06q-1.51-1.66-2.18-4.29-.67-2.62-.67-6.91t1.47-8.19q1.47-3.91 4.16-6.72 5.5-5.89 14.59-5.89 3.27 0 5.63 1.09l10.95-1.09-4.74 24.96q-.19.77-.19 2.18 0 1.4.86 2.3.87.9 2.15 1.02-.64 2.18-2.98 3.46-2.33 1.28-4.96 1.28-2.62 0-4.38-.99-1.76-.99-2.27-2.66-1.03 1.6-3.2 2.63-2.18 1.02-5.09 1.02-2.91 0-5.28-.77t-3.87-2.43zm13.5-25.98q-.74 1.15-1.38 3.1-.64 1.95-1.69 7.17-1.06 5.21-1.06 8.93 0 3.71.58 4.8.57 1.08 1.6 1.08 2.05 0 3.55-1.95t2.08-5.41l3.39-18.75q-1.34-1.15-2.91-1.15t-2.5.51q-.92.51-1.66 1.67z" fill="#3f51b5"/></g><style></style></svg>